<svg width="128" height="40" viewBox="0 0 128 40" fill="none" xmlns="http://www.w3.org/2000/svg">
<path d="M127.833 9.17969L115.089 39.7087H108.041L112.288 30.2327L103.466 9.17969H110.561L115.649 22.5767L120.739 9.17969H127.833Z" fill="black"/>
<path d="M94.005 32.567C90.832 32.567 88.358 31.26 86.771 28.879V32.099H80.189V0H86.771V12.401C88.358 10.021 90.831 8.713 94.006 8.713C99.934 8.713 104.649 14.035 104.649 20.616C104.649 27.198 99.934 32.566 94.006 32.566L94.005 32.567ZM92.512 14.969C89.291 14.969 86.771 17.442 86.771 20.616C86.771 23.838 89.291 26.264 92.511 26.264C95.687 26.264 98.254 23.791 98.254 20.616C98.254 17.489 95.687 14.969 92.512 14.969V14.969Z" fill="black"/>
<path d="M77.15 32.1H70.568V0H77.15V32.1Z" fill="black"/>
<path d="M67.949 32.0999H61.741V29.2529C60.387 31.4929 58.24 32.5669 55.206 32.5669C51.145 32.5669 48.11 29.5329 48.11 25.7049C48.11 20.8969 52.358 18.3749 58.8 18.3749H61.74V17.8619C61.74 15.8079 59.967 14.0799 57.353 14.0799C54.879 14.0799 52.452 15.4349 51.191 17.0219L47.597 13.1939C49.604 10.5789 53.525 8.71191 57.353 8.71191C63.842 8.71191 67.949 12.4939 67.949 18.0019V32.0999ZM61.741 22.4839H58.473C55.579 22.4839 53.852 23.3709 53.852 25.0979C53.852 26.4979 54.972 27.4319 56.746 27.4319C59.64 27.4319 61.741 25.4719 61.741 23.1839V22.4839Z" fill="black"/>
<path d="M45.772 19.123V32.1H39.19V19.963C39.19 16.976 37.37 15.015 34.662 15.015C31.908 15.015 30.134 16.976 30.134 19.963V32.1H23.552V0H30.134V12.168C31.581 9.974 33.728 8.713 36.344 8.713C42.224 8.713 45.772 12.635 45.772 19.123V19.123Z" fill="black"/>
<path d="M20.965 31.82C20.125 32.24 18.817 32.473 17.603 32.473C12.235 32.473 8.45401 29.065 8.45401 23.137V0H15.036V9.18H20.684V15.435H15.036V22.81C15.036 24.958 16.669 26.311 18.583 26.311C19.237 26.311 20.124 26.172 20.637 25.985L20.965 31.82Z" fill="black"/>
<path d="M7.19 12.3069C7.19007 12.779 7.09714 13.2465 6.91654 13.6827C6.73593 14.1189 6.47118 14.5152 6.1374 14.8491C5.80362 15.183 5.40735 15.4478 4.97121 15.6285C4.53507 15.8093 4.0676 15.9023 3.5955 15.9024C3.1234 15.9025 2.65591 15.8095 2.21972 15.6289C1.78352 15.4483 1.38718 15.1836 1.0533 14.8498C0.719432 14.516 0.454571 14.1197 0.273844 13.6836C0.0931181 13.2475 6.56539e-05 12.78 0 12.3079C0 11.3544 0.378758 10.44 1.05295 9.76584C1.72714 9.09165 2.64155 8.71289 3.595 8.71289C4.54845 8.71289 5.46286 9.09165 6.13705 9.76584C6.81124 10.44 7.19 11.3544 7.19 12.3079V12.3069Z" fill="#0033FF"/>
</svg>
